<?xml version="1.0" encoding="UTF-8"?> <svg xmlns="http://www.w3.org/2000/svg" width="732" height="136" viewBox="0 0 732 136" fill="none"><path d="M0 0.911703C0.655635 0.604029 1.35838 0.651363 2.05328 0.651363C11.1968 0.651363 20.3404 0.651363 29.484 0.651363C31.5529 0.651363 31.5529 0.659252 31.5529 2.74591C31.5529 28.8666 31.5529 54.9834 31.5529 81.1041C31.5529 93.3085 41.2304 103.052 53.3695 103.063C64.4172 103.071 75.4648 103.063 86.5125 103.063C88.3695 103.063 88.3773 103.071 88.3773 104.913C88.3773 114.226 88.3773 123.536 88.3773 132.849C88.3773 134.659 88.342 134.703 86.485 134.703C75.5316 134.706 64.5742 134.774 53.6208 134.687C38.5137 134.564 25.4991 129.235 14.954 118.329C6.68984 109.773 1.82165 99.4975 0.439708 87.6166C0.282669 86.2794 0.145261 84.9422 0 83.605C0 56.0406 0 28.4761 0 0.911703Z" fill="white"></path><path d="M150.391 42.952C150.391 29.5919 150.391 16.2317 150.391 2.87159C150.391 0.650811 150.403 0.638977 152.657 0.638977C161.612 0.638977 170.571 0.638977 179.526 0.638977C181.587 0.638977 181.638 0.690256 181.638 2.74142C181.638 12.6106 181.638 22.4799 181.638 32.3452C181.638 34.132 181.658 34.1636 183.279 33.4772C189.914 30.6766 196.859 29.3039 204.024 29.4104C230.147 29.7891 251.611 48.4231 255.921 73.609C258.701 89.8368 254.673 104.495 244.096 117.113C235.282 127.629 223.913 133.921 210.309 135.538C193.027 137.597 178.011 132.355 165.699 119.985C157.203 111.445 152.28 101.027 150.843 89.0006C150.521 86.3183 150.387 83.6281 150.387 80.93C150.387 68.2681 150.387 55.6061 150.387 42.9441L150.391 42.952ZM203.608 59.8701C190.947 59.8623 180.829 69.9445 180.798 82.5986C180.767 95.3591 190.864 105.587 203.502 105.599C216.202 105.611 226.382 95.4578 226.394 82.7721C226.406 70.0194 216.312 59.878 203.608 59.8701Z" fill="white"></path><path d="M336.106 95.4225C324.921 95.4225 313.736 95.4225 302.551 95.4225C300.757 95.4225 300.733 95.4659 301.577 97.0634C308.004 109.189 324.297 112.723 335.274 104.306C336.691 103.217 338.073 102.779 339.836 102.791C348.885 102.866 357.938 102.822 366.988 102.826C368.892 102.826 369.013 102.984 368.205 104.665C360.058 121.551 346.824 132.016 328.415 135.227C300.8 140.047 273.907 121.717 268.014 94.2352C264.43 77.5143 268.124 62.2923 278.897 49.0584C287.781 38.1399 299.438 31.7103 313.39 30.0024C328.309 28.1721 341.736 32.1995 353.38 41.7295C364.082 50.4863 370.395 61.8466 372.401 75.5618C373.285 81.5969 372.975 87.6123 371.836 93.6041C371.565 95.028 370.949 95.458 369.52 95.4501C358.382 95.3949 347.24 95.4186 336.102 95.4186L336.106 95.4225ZM319.774 72.1576C326.032 72.1576 332.29 72.1616 338.548 72.1576C339.953 72.1576 339.993 72.063 339.306 70.8954C338.505 69.5266 337.531 68.2723 336.455 67.1205C326.299 56.2572 308.55 57.9415 300.564 70.5167C300.301 70.9309 299.756 71.345 300.011 71.8578C300.278 72.3903 300.929 72.1497 301.412 72.1497C307.533 72.1655 313.649 72.1576 319.77 72.1576H319.774Z" fill="white"></path><path d="M731.143 107.244C731.143 115.67 731.143 124.095 731.143 132.521C731.143 134.556 731.135 134.56 729.153 134.56C720.52 134.56 711.89 134.56 703.257 134.56C701.247 134.56 701.247 134.556 701.239 132.576C701.231 130.632 701.228 130.62 699.524 131.385C691.53 134.959 683.137 136.485 674.433 135.866C662.129 134.99 651.321 130.407 642.189 122.032C632.759 113.386 626.999 102.688 625.327 89.9989C623.266 74.3785 627.317 60.3636 637.454 48.2893C645.475 38.7357 655.69 32.6887 667.955 30.4127C684.295 27.3833 699.033 31.1858 711.843 41.7532C723.04 50.9913 729.259 63.0695 730.853 77.5144C731.281 81.4037 731.155 85.3206 731.147 89.2297C731.135 95.2333 731.147 101.241 731.147 107.244H731.143ZM700.737 82.733C700.749 69.9803 690.663 59.8587 677.947 59.8547C665.293 59.8508 655.164 69.9488 655.141 82.591C655.117 95.2254 665.281 105.576 677.738 105.592C690.549 105.611 700.729 95.4936 700.741 82.733H700.737Z" fill="white"></path><path d="M549.604 106.412C549.604 115.165 549.604 123.918 549.604 132.671C549.604 134.552 549.592 134.56 547.77 134.56C539.043 134.56 530.319 134.56 521.592 134.56C519.747 134.56 519.715 134.521 519.696 132.702C519.696 132.469 519.676 132.237 519.696 132.004C519.798 130.931 519.464 130.706 518.447 131.176C514.729 132.895 510.858 134.201 506.822 134.939C490.384 137.948 475.548 134.319 462.612 123.705C452.495 115.401 446.237 104.653 444.097 91.6869C441.483 75.8456 445.252 61.5625 455.314 49.0701C463.445 38.9761 473.978 32.6727 486.694 30.3572C502.818 27.4225 517.391 31.2132 530.107 41.5716C539.973 49.6105 546.106 60.0241 548.603 72.548C549.239 75.747 549.6 78.9816 549.6 82.2476C549.6 90.3024 549.6 98.3571 549.6 106.408L549.604 106.412ZM496.462 59.8545C483.875 59.8545 473.589 70.063 473.574 82.579C473.558 95.233 483.801 105.58 496.356 105.591C508.679 105.607 519.295 95.947 519.283 82.6105C519.268 69.1084 508.102 59.6336 496.462 59.8505V59.8545Z" fill="white"></path><path d="M562.24 43.5676C562.24 29.9274 562.24 16.2872 562.24 2.64697C562.24 0.647093 562.244 0.639204 564.262 0.639204C573.405 0.639204 582.549 0.63526 591.692 0.639204C593.604 0.639204 593.612 0.654982 593.612 2.60753C593.612 10.5676 593.64 18.5277 593.589 26.4878C593.581 27.8131 593.946 28.2549 595.308 28.2391C601.111 28.1721 606.909 28.2391 612.712 28.1879C614.011 28.176 614.506 28.5429 614.498 29.9156C614.451 39.3193 614.455 48.7231 614.498 58.1269C614.506 59.4523 614.09 59.9217 612.747 59.9098C606.945 59.8546 601.142 59.9256 595.343 59.8585C593.989 59.8428 593.604 60.2846 593.616 61.6178C593.675 68.0435 593.616 74.4652 593.651 80.8908C593.714 91.7186 600.816 100.539 611.118 102.645C611.255 102.673 611.389 102.712 611.526 102.736C613.494 103.07 614.479 104.216 614.479 106.175C614.479 114.928 614.479 123.681 614.479 132.43C614.479 134.698 614.479 134.682 612.186 134.556C601.295 133.953 591.523 130.276 582.937 123.583C571.356 114.553 564.654 102.645 562.597 88.1014C562.283 85.8925 562.232 83.6559 562.236 81.4194C562.255 68.8048 562.248 56.1862 562.248 43.5715L562.24 43.5676Z" fill="white"></path><path d="M385.113 105.513C385.113 97.1345 384.988 88.7524 385.141 80.3781C385.388 66.7222 390.272 54.8728 399.577 44.9207C408.108 35.797 418.637 30.4442 430.961 28.6258C432.472 28.4049 434.003 28.2866 435.531 28.2235C437.305 28.1485 437.344 28.2235 437.348 29.967C437.356 36.9488 437.348 43.9306 437.348 50.9125C437.348 53.3778 437.313 55.8471 437.364 58.3124C437.384 59.338 437.074 59.8034 435.986 59.9297C424.722 61.2116 416.666 70.2644 416.662 81.6167C416.655 98.2785 416.662 114.944 416.662 131.606C416.662 132.071 416.631 132.541 416.662 133.002C416.745 134.115 416.321 134.608 415.143 134.56C413.29 134.489 411.433 134.541 409.576 134.541C402.011 134.541 394.449 134.505 386.884 134.572C385.455 134.584 385.078 134.126 385.086 132.738C385.141 123.662 385.113 114.585 385.113 105.509V105.513Z" fill="white"></path><path d="M133.774 88.6339C133.774 103.343 133.774 118.048 133.774 132.758C133.774 134.125 133.083 134.811 131.701 134.817C122.467 134.817 113.233 134.817 103.999 134.817C102.146 134.817 102.134 134.809 102.134 132.971C102.134 103.414 102.134 73.8616 102.134 44.3052C102.134 42.4671 102.142 42.4592 103.999 42.4592C113.28 42.4592 122.561 42.4592 131.838 42.4592C133.762 42.4592 133.77 42.4671 133.77 44.3762C133.77 59.1288 133.77 73.8853 133.77 88.6379L133.774 88.6339Z" fill="white"></path><path d="M118.045 32.5701C109.012 32.5622 101.843 25.32 101.855 16.2081C101.867 7.3132 109.224 -0.0157527 118.124 2.54285e-05C127.079 0.0158036 134.35 7.3842 134.33 16.4172C134.307 25.3476 127.02 32.574 118.045 32.5661V32.5701Z" fill="white"></path></svg> 